<?xml version="1.0" encoding="UTF-8"?>
<svg width="256px" height="256px" viewBox="0 0 256 256" version="1.1" xmlns="http://www.w3.org/2000/svg" xmlns:xlink="http://www.w3.org/1999/xlink" style="background: #FFFFFF;">
    <!-- Generator: Sketch 47.1 (45422) - http://www.bohemiancoding.com/sketch -->
    <title>ionic-madrid-icon</title>
    <desc>Created with Sketch.</desc>
    <defs></defs>
    <g id="Logo-2018" stroke="none" stroke-width="1" fill="none" fill-rule="evenodd">
        <g id="ionic-madrid-icon" fill-rule="nonzero">
            <g id="Ion" transform="translate(13.000000, 13.000000)" fill="#3880FF">
                <circle id="Oval" cx="190.020297" cy="43.994847" r="23.8695446"></circle>
                <path d="M219.350195,67.8643916 L218.414134,65.6802503 L216.854033,67.5523714 C212.953781,71.9206541 207.961458,75.3528762 202.501104,77.3810075 L200.941003,78.0050478 L201.565044,79.5651488 C206.401357,90.9538858 208.741508,103.122673 208.741508,115.447471 C208.741508,167.086812 166.774792,209.209538 114.979441,209.209538 C63.1840888,209.209538 21.3733831,167.086812 21.3733831,115.447471 C21.3733831,63.8081291 63.3400989,21.6854033 115.135451,21.6854033 C129.176359,21.6854033 142.593227,24.8056052 155.230045,30.7339889 L156.634136,31.3580292 L157.258176,29.7979283 C159.598328,24.3375749 163.18656,19.6572721 167.866863,15.9130298 L169.738984,14.3529288 L167.554843,13.2608581 C151.173783,4.83631297 133.544642,0.468030287 114.979441,0.468030287 C51.7953518,0.468030287 0.312020191,51.9513619 0.312020191,115.135451 C0.312020191,178.319539 51.7953518,229.802871 114.979441,229.802871 C178.163529,229.802871 229.646861,178.319539 229.646861,115.135451 C229.646861,98.9104007 226.214639,82.9973709 219.350195,67.8643916 Z" id="Shape"></path>
            </g>
            <g id="Madrid" transform="translate(56.852140, 56.852140)">
                <path d="M102.023346,104.708171 C100.143969,104.708171 100.680934,101.486381 99.5175097,100.412451 C98.3540856,99.3385214 98.9805447,98.3540856 99.7859922,97.2801556 C101.396887,95.311284 101.307393,93.4319066 99.8754864,91.1050584 C97.0116732,86.540856 93.1634241,82.2451362 94.2373541,76.1595331 C94.4163424,75.2645914 93.7898833,74.0116732 93.2529183,73.1167315 C92.1789883,71.4163424 92.0894942,69.9844358 93.1634241,68.1050584 C94.9533074,64.9727626 93.2529183,62.8249027 89.7626459,61.6614786 C87.1673152,60.8560311 84.0350195,61.3929961 82.0661479,58.7976654 C84.2140078,57.9027237 86.3618677,57.1867704 88.3307393,56.1128405 C93.5214008,53.3385214 97.9961089,49.6692607 97.8171206,43.2256809 C97.6381323,36.7821012 93.4319066,32.844358 87.9727626,30.5175097 C77.770428,26.2217899 67.2101167,25.6848249 56.9182879,30.4280156 C54.3229572,31.5914397 52.0856031,33.2918288 50.2062257,35.4396887 C45.8210117,40.540856 45.9105058,46.8054475 50.4747082,51.6381323 C54.5914397,56.0233463 59.9610895,58.1712062 65.7782101,59.155642 C67.0311284,59.3346304 68.0155642,59.7821012 68.0155642,60.4980545 L68.0155642,100.770428 C68.0155642,103.455253 66.4046693,104.439689 63.1828794,104.439689 C60.9455253,104.439689 58.2607004,104.708171 55.3968872,104.708171 L24.5214008,104.708171 L56.2023346,124.217899 L98.4435798,123.770428 L118.042802,104.708171 L102.023346,104.708171 Z M81.2607004,73.7431907 C79.9182879,72.6692607 77.8599222,70.07393 77.8599222,67.4785992 L77.8599222,59.6031128 C77.8599222,59.5136187 78.6653696,59.5136187 79.8287938,59.4241245 C77.4124514,64.614786 81.9766537,68.9105058 81.2607004,73.7431907 Z M85.5564202,104.439689 C85.4669261,104.439689 85.3774319,104.708171 85.2879377,104.708171 L80.6342412,104.708171 C79.0233463,103.81323 77.770428,102.560311 77.770428,100.59144 L77.770428,85.1984436 C79.5603113,85.8249027 81.2607004,86.8988327 81.3501946,89.7626459 C81.4396887,91.9105058 82.8715953,94.0583658 84.0350195,96.1167315 C85.1984436,98.1750973 85.6459144,100.770428 87.3463035,102.7393 C87.9727626,103.276265 86.7198444,104.2607 85.5564202,104.439689 Z" id="Shape" fill="#204FC6"></path>
                <path d="M71.5953307,0.178988327 C32.2178988,0.178988327 0.357976654,32.1284047 0.357976654,71.4163424 C0.357976654,110.70428 32.307393,142.653696 71.5953307,142.653696 C110.883268,142.653696 142.832685,110.70428 142.832685,71.4163424 C142.832685,32.1284047 110.972763,0.178988327 71.5953307,0.178988327 Z M71.5953307,121.533074 C43.8521401,121.533074 21.4785992,99.0700389 21.4785992,71.4163424 C21.4785992,43.6731518 43.9416342,21.2996109 71.5953307,21.2996109 C99.2490272,21.2996109 121.712062,43.7626459 121.712062,71.4163424 C121.712062,99.0700389 99.3385214,121.533074 71.5953307,121.533074 Z" id="Shape" fill="#518EFE"></path>
                <g id="Group" transform="translate(17.898833, 25.953307)" fill="#FDFEFE">
                    <polygon id="Shape" points="6.08560311 0.715953307 7.96498054 3.93774319 11.7237354 3.93774319 9.84435798 7.24902724 11.7237354 10.4708171 7.96498054 10.4708171 6.08560311 13.7821012 4.20622568 10.4708171 0.447470817 10.4708171 2.32684825 7.24902724 0.447470817 3.93774319 4.20622568 3.93774319"></polygon>
                    <polygon id="Shape" points="100.859922 0.715953307 102.7393 3.93774319 106.498054 3.93774319 104.618677 7.24902724 106.498054 10.4708171 102.7393 10.4708171 100.859922 13.7821012 98.9805447 10.4708171 95.2217899 10.4708171 97.1011673 7.24902724 95.2217899 3.93774319 98.9805447 3.93774319"></polygon>
                </g>
                <g id="Group" transform="translate(4.474708, 64.435798)" fill="#FDFEFE">
                    <polygon id="Shape" points="6.44357977 0.805447471 8.3229572 4.02723735 12.0817121 4.02723735 10.2023346 7.3385214 12.0817121 10.5603113 8.3229572 10.5603113 6.44357977 13.8715953 4.56420233 10.5603113 0.805447471 10.5603113 2.6848249 7.3385214 0.805447471 4.02723735 4.56420233 4.02723735"></polygon>
                    <polygon id="Shape" points="128.692607 0.805447471 130.571984 4.02723735 134.330739 4.02723735 132.451362 7.3385214 134.330739 10.5603113 130.571984 10.5603113 128.692607 13.8715953 126.81323 10.5603113 123.054475 10.5603113 124.844358 7.3385214 123.054475 4.02723735 126.81323 4.02723735"></polygon>
                </g>
                <polygon id="Shape" fill="#FDFEFE" points="71.6848249 4.38521401 73.5642023 7.69649805 77.3229572 7.69649805 75.5330739 10.9182879 77.3229572 14.229572 73.5642023 14.229572 71.6848249 17.4513619 69.8054475 14.229572 66.0466926 14.229572 67.92607 10.9182879 66.0466926 7.69649805 69.8054475 7.69649805"></polygon>
                <g id="Group" transform="translate(22.373541, 108.287938)" fill="#FDFEFE">
                    <polygon id="Shape" points="6.44357977 0.0894941634 8.3229572 3.31128405 12.0817121 3.31128405 10.2023346 6.62256809 12.0817121 9.84435798 8.3229572 9.84435798 6.44357977 13.155642 4.47470817 9.84435798 0.715953307 9.84435798 2.59533074 6.62256809 0.715953307 3.31128405 4.47470817 3.31128405"></polygon>
                    <polygon id="Shape" points="91.3735409 0.0894941634 93.2529183 3.31128405 97.0116732 3.31128405 95.1322957 6.62256809 97.0116732 9.84435798 93.2529183 9.84435798 91.3735409 13.155642 89.4941634 9.84435798 85.7354086 9.84435798 87.614786 6.62256809 85.7354086 3.31128405 89.4941634 3.31128405"></polygon>
                </g>
                <g id="Group-2" transform="translate(49.221790, 37.587549)" fill="#518EFE">
                    <circle id="Oval" cx="3.13229572" cy="5.72762646" r="2.95330739"></circle>
                    <circle id="Oval" cx="9.93385214" cy="9.39688716" r="2.95330739"></circle>
                    <circle id="Oval" cx="14.229572" cy="15.4824903" r="2.95330739"></circle>
                    <circle id="Oval" cx="17.3618677" cy="3.75875486" r="2.95330739"></circle>
                    <circle id="Oval" cx="20.4046693" cy="10.5603113" r="2.95330739"></circle>
                    <circle id="Oval" cx="27.6536965" cy="10.5603113" r="2.95330739"></circle>
                    <circle id="Oval" cx="23.4474708" cy="17.2723735" r="2.95330739"></circle>
                    <circle id="Oval" cx="33.2023346" cy="5.01167315" r="2.95330739"></circle>
                    <circle id="Oval" cx="41.7937743" cy="7.51750973" r="2.95330739"></circle>
                    <circle id="Oval" cx="34.9922179" cy="12.9766537" r="2.95330739"></circle>
                </g>
            </g>
        </g>
    </g>
</svg>