<?xml version="1.0" encoding="UTF-8"?>
<svg width="1066px" height="270px" viewBox="0 0 1066 270" version="1.1" xmlns="http://www.w3.org/2000/svg" xmlns:xlink="http://www.w3.org/1999/xlink" style="background: #FFFFFF;">
    <!-- Generator: Sketch 47.1 (45422) - http://www.bohemiancoding.com/sketch -->
    <title>ionic-madrid-landscape</title>
    <desc>Created with Sketch.</desc>
    <defs></defs>
    <g id="Logo-2018" stroke="none" stroke-width="1" fill="none" fill-rule="evenodd">
        <g id="ionic-madrid-landscape" fill-rule="nonzero">
            <g id="Letters" transform="translate(263.000000, 77.000000)">
                <g transform="translate(302.687500, 0.000000)" id="Shape" fill="#4E8EF7">
                    <path d="M20.84375,41.6875 C25.19375,38.96875 30.0875,37.7 35.34375,37.7 C37.3375,37.7 39.33125,37.88125 41.50625,38.24375 C43.68125,38.60625 45.675,39.5125 47.85,40.6 C49.84375,41.86875 51.8375,43.31875 53.46875,45.3125 C55.1,47.30625 56.73125,49.84375 58,52.925 C60.5375,47.85 63.98125,44.04375 68.33125,41.50625 C72.68125,38.7875 77.75625,37.51875 83.7375,37.51875 C92.98125,37.51875 100.05,40.2375 104.58125,45.85625 C109.29375,51.475 111.46875,58.725 111.46875,67.7875 L111.46875,112.7375 L100.775,112.7375 L100.775,72.1375 C100.775,64.34375 99.325,58.18125 96.425,53.46875 C93.525,48.75625 88.63125,46.4 81.74375,46.4 C77.9375,46.4 74.675,47.125 71.95625,48.75625 C69.2375,50.3875 67.24375,52.38125 65.6125,54.91875 C63.98125,57.45625 62.89375,60.35625 62.16875,63.61875 C61.44375,66.88125 61.08125,70.14375 61.08125,73.5875 L61.08125,112.55625 L50.3875,112.55625 L50.3875,69.78125 C50.3875,66.15625 50.20625,63.075 49.6625,59.99375 C49.11875,57.09375 48.2125,54.55625 46.94375,52.5625 C45.675,50.56875 43.8625,48.9375 41.50625,47.85 C39.15,46.7625 36.25,46.21875 32.80625,46.21875 C30.26875,46.21875 27.73125,46.7625 25.19375,47.85 C22.65625,48.9375 20.3,50.75 18.30625,53.10625 C16.3125,55.4625 14.68125,58.3625 13.4125,61.9875 C12.14375,65.6125 11.6,69.78125 11.6,74.675 L11.6,112.19375 L0.90625,112.19375 L0.90625,55.1 C0.90625,53.10625 0.90625,50.56875 0.725,47.4875 C0.54375,44.40625 0.54375,41.50625 0.18125,38.96875 L10.33125,38.96875 C10.5125,40.9625 10.69375,43.1375 10.875,45.49375 C11.05625,47.85 11.05625,49.84375 11.05625,51.475 L11.41875,51.475 C13.23125,47.85 16.49375,44.40625 20.84375,41.6875 Z"></path>
                    <path d="M177.2625,65.43125 C177.2625,59.0875 175.63125,54.375 172.1875,51.29375 C168.925,48.2125 164.03125,46.58125 157.6875,46.58125 C153.3375,46.58125 149.16875,47.30625 145.54375,48.9375 C141.7375,50.56875 138.65625,52.5625 135.9375,55.28125 L129.95625,48.2125 C133.0375,45.13125 137.025,42.775 141.91875,40.78125 C146.8125,38.7875 152.43125,37.88125 158.775,37.88125 C162.7625,37.88125 166.3875,38.425 169.83125,39.5125 C173.275,40.6 176.35625,42.23125 178.89375,44.40625 C181.43125,46.58125 183.60625,49.3 185.05625,52.74375 C186.50625,56.00625 187.23125,59.99375 187.23125,64.525 L187.23125,96.60625 C187.23125,99.50625 187.4125,102.40625 187.59375,105.30625 C187.775,108.3875 188.1375,110.925 188.5,112.91875 L178.89375,112.91875 C178.53125,111.10625 178.35,109.29375 178.16875,107.11875 C177.9875,104.94375 177.80625,102.95 177.80625,100.95625 L177.625,100.95625 C174.3625,105.85 170.55625,109.29375 166.20625,111.46875 C162.0375,113.64375 156.9625,114.73125 150.98125,114.73125 C148.08125,114.73125 145.18125,114.36875 142.28125,113.64375 C139.38125,112.91875 136.6625,111.65 134.125,109.8375 C131.5875,108.025 129.59375,105.66875 127.9625,102.95 C126.33125,100.05 125.60625,96.60625 125.60625,92.61875 C125.60625,87 127.05625,82.46875 129.95625,79.20625 C132.85625,75.94375 136.6625,73.40625 141.375,71.775 C146.0875,70.14375 151.70625,69.05625 157.86875,68.69375 C164.03125,68.15 170.55625,67.96875 177.2625,67.96875 L177.2625,65.43125 Z M174.18125,76.30625 C169.83125,76.30625 165.48125,76.4875 160.95,76.85 C156.6,77.2125 152.43125,77.9375 148.9875,79.025 C145.3625,80.1125 142.4625,81.74375 140.10625,83.7375 C137.75,85.9125 136.6625,88.63125 136.6625,92.075 C136.6625,94.6125 137.20625,96.7875 138.1125,98.6 C139.01875,100.4125 140.46875,101.8625 142.1,102.95 C143.73125,104.0375 145.54375,104.7625 147.71875,105.30625 C149.7125,105.85 151.8875,106.03125 153.88125,106.03125 C157.6875,106.03125 160.95,105.30625 163.85,104.0375 C166.75,102.76875 169.2875,100.95625 171.28125,98.78125 C173.275,96.60625 174.725,93.8875 175.8125,90.9875 C176.9,88.0875 177.44375,85.00625 177.44375,81.74375 L177.44375,76.30625 L174.18125,76.30625 Z"></path>
                    <path d="M266.98125,100.4125 C263.9,105.125 259.73125,108.56875 254.8375,111.10625 C249.7625,113.4625 244.6875,114.73125 239.43125,114.73125 C233.63125,114.73125 228.55625,113.825 223.84375,111.83125 C219.13125,109.8375 215.325,107.11875 211.88125,103.675 C208.61875,100.23125 206.08125,96.24375 204.26875,91.53125 C202.45625,86.81875 201.55,81.74375 201.55,76.30625 C201.55,70.86875 202.45625,65.79375 204.26875,61.08125 C206.08125,56.36875 208.61875,52.38125 211.88125,48.9375 C215.14375,45.49375 219.13125,42.775 223.84375,40.78125 C228.55625,38.7875 233.63125,37.88125 239.43125,37.88125 C244.6875,37.88125 249.94375,39.15 254.8375,41.50625 C259.9125,44.04375 263.9,47.66875 266.98125,52.38125 L267.34375,52.38125 L267.34375,0 L278.0375,0 L278.0375,112.91875 L267.34375,112.91875 L267.34375,100.59375 L266.98125,100.59375 L266.98125,100.4125 Z M212.7875,76.30625 C212.7875,80.29375 213.33125,84.28125 214.6,87.725 C215.86875,91.35 217.68125,94.43125 220.0375,97.15 C222.39375,99.86875 225.29375,101.8625 228.7375,103.49375 C232.18125,104.94375 236.16875,105.85 240.51875,105.85 C244.50625,105.85 248.3125,105.125 251.75625,103.49375 C255.2,102.04375 258.1,99.86875 260.6375,97.33125 C263.175,94.79375 265.16875,91.53125 266.4375,88.0875 C267.8875,84.4625 268.6125,80.65625 268.6125,76.4875 C268.6125,72.31875 267.8875,68.5125 266.4375,64.8875 C264.9875,61.2625 262.99375,58.18125 260.6375,55.4625 C258.1,52.74375 255.2,50.75 251.75625,49.11875 C248.3125,47.66875 244.50625,46.7625 240.51875,46.7625 C236.16875,46.7625 232.18125,47.4875 228.7375,49.11875 C225.29375,50.75 222.39375,52.74375 220.0375,55.4625 C217.68125,58.18125 215.86875,61.2625 214.6,64.8875 C213.33125,68.33125 212.7875,72.1375 212.7875,76.30625 Z"></path>
                    <path d="M298.51875,48.03125 C298.3375,44.95 298.3375,42.05 297.975,39.5125 L308.125,39.5125 C308.30625,41.50625 308.4875,43.68125 308.66875,46.0375 C308.85,48.39375 308.85,50.3875 308.85,52.01875 L309.2125,52.01875 C311.3875,47.66875 314.46875,44.225 318.6375,41.6875 C322.80625,38.96875 327.51875,37.7 332.775,37.7 C334.04375,37.7 335.3125,37.7 336.4,37.88125 C337.4875,38.0625 338.575,38.24375 339.84375,38.425 L338.39375,48.575 C337.85,48.39375 336.7625,48.2125 335.3125,48.03125 C333.8625,47.85 332.4125,47.66875 330.9625,47.66875 C328.0625,47.66875 325.34375,48.2125 322.80625,49.3 C320.26875,50.3875 317.9125,52.01875 315.91875,54.19375 C313.925,56.36875 312.475,59.26875 311.20625,62.7125 C309.9375,66.15625 309.39375,70.325 309.39375,75.21875 L309.39375,112.7375 L298.7,112.7375 L298.7,55.64375 C298.7,53.83125 298.51875,51.1125 298.51875,48.03125 Z"></path>
                    <path d="M360.14375,16.85625 C360.14375,19.03125 359.41875,20.84375 357.7875,22.29375 C356.15625,23.74375 354.525,24.46875 352.7125,24.46875 C350.9,24.46875 349.0875,23.74375 347.6375,22.29375 C346.00625,20.84375 345.28125,19.03125 345.28125,16.85625 C345.28125,14.68125 346.00625,12.86875 347.6375,11.41875 C349.26875,9.96875 350.9,9.24375 352.7125,9.24375 C354.525,9.24375 356.3375,9.96875 357.7875,11.41875 C359.41875,12.86875 360.14375,14.68125 360.14375,16.85625 Z M357.96875,112.91875 L347.275,112.91875 L347.275,39.69375 L357.96875,39.69375 L357.96875,112.91875 Z"></path>
                    <path d="M438.625,100.4125 C435.54375,105.125 431.375,108.56875 426.48125,111.10625 C421.40625,113.4625 416.33125,114.73125 411.075,114.73125 C405.275,114.73125 400.2,113.825 395.4875,111.83125 C390.775,109.8375 386.96875,107.11875 383.525,103.675 C380.2625,100.23125 377.725,96.24375 375.9125,91.53125 C374.1,86.81875 373.19375,81.74375 373.19375,76.30625 C373.19375,70.86875 374.1,65.79375 375.9125,61.08125 C377.725,56.36875 380.2625,52.38125 383.525,48.9375 C386.7875,45.49375 390.775,42.775 395.4875,40.78125 C400.2,38.7875 405.275,37.88125 411.075,37.88125 C416.33125,37.88125 421.5875,39.15 426.48125,41.50625 C431.55625,44.04375 435.54375,47.66875 438.625,52.38125 L438.9875,52.38125 L438.9875,0 L449.68125,0 L449.68125,112.91875 L438.9875,112.91875 L438.9875,100.59375 L438.625,100.59375 L438.625,100.4125 Z M384.43125,76.30625 C384.43125,80.29375 384.975,84.28125 386.24375,87.725 C387.5125,91.35 389.325,94.43125 391.68125,97.15 C394.0375,99.86875 396.9375,101.8625 400.38125,103.49375 C403.825,104.94375 407.8125,105.85 412.1625,105.85 C416.15,105.85 419.95625,105.125 423.4,103.49375 C426.84375,102.04375 429.74375,99.86875 432.28125,97.33125 C434.81875,94.79375 436.8125,91.53125 438.08125,88.0875 C439.53125,84.4625 440.25625,80.65625 440.25625,76.4875 C440.25625,72.31875 439.53125,68.5125 438.08125,64.8875 C436.63125,61.2625 434.6375,58.18125 432.28125,55.4625 C429.74375,52.74375 426.84375,50.75 423.4,49.11875 C419.95625,47.66875 416.15,46.7625 412.1625,46.7625 C407.8125,46.7625 403.825,47.4875 400.38125,49.11875 C396.9375,50.75 394.0375,52.74375 391.68125,55.4625 C389.325,58.18125 387.5125,61.2625 386.24375,64.8875 C384.975,68.33125 384.43125,72.1375 384.43125,76.30625 Z"></path>
                </g>
                <g id="IONIC" transform="translate(0.000000, 36.250000)" fill="#3880FF">
                    <rect id="Rectangle-path" x="0.114815737" y="2.29227941" width="17.7964392" height="73.3529412"></rect>
                    <rect id="Rectangle-path" x="192.201544" y="2.29227941" width="17.7964392" height="73.3529412"></rect>
                    <path d="M151.09751,0.573069853 C138.582595,0.573069853 128.938073,8.13759191 126.756574,10.2006434 L126.756574,10.2006434 L125.608416,2.29227941 L110.797186,2.29227941 L110.797186,75.6452206 L128.593625,75.6452206 L128.593625,75.6452206 L128.593625,31.289614 C128.593625,22.5789522 140.419646,15.472886 149.145642,15.472886 C157.642007,15.472886 164.30132,23.7250919 164.30132,33.5818934 L164.30132,75.6452206 L182.097759,75.6452206 L182.097759,35.3011029 C181.982943,16.0459559 173.601394,0.573069853 151.09751,0.573069853 Z" id="Shape"></path>
                    <path d="M256.613172,62.35 C243.179731,62.35 234.338919,51.9201287 234.338919,38.96875 C234.338919,26.0173713 243.179731,15.5875 256.613172,15.5875 C267.97993,15.5875 274.98369,26.5904412 274.98369,26.5904412 L287.843053,17.9943934 C284.168949,12.2636949 279.805951,8.82527574 273.950349,5.27224265 C269.587351,2.63612132 263.731748,0.458455882 257.187251,0.458455882 C234.912998,0.458455882 217.920269,17.1920956 217.805453,38.854136 C217.920269,60.5161765 234.912998,77.2498162 257.187251,77.2498162 C263.731748,77.2498162 269.587351,75.0721507 273.950349,72.4360294 C279.805951,68.8829963 284.168949,65.4445772 287.843053,59.7138787 L274.98369,51.1178309 C274.98369,51.2324449 268.094746,62.35 256.613172,62.35 Z" id="Shape"></path>
                    <path d="M64.2968127,0.573069853 C41.907744,0.573069853 25.8335408,18.1090074 25.8335408,38.6249081 C25.8335408,59.4846507 41.4484811,77.3644301 64.64126,77.3644301 C85.6525398,77.3644301 102.760085,61.3184743 102.760085,39.083364 C102.760085,13.6390625 82.7821464,0.573069853 64.2968127,0.573069853 L64.2968127,0.573069853 Z M64.5264442,15.702114 C75.548755,15.702114 85.9969871,24.6420037 85.9969871,39.083364 C85.9969871,53.1808824 75.548755,62.35 64.4116285,62.35 C52.2411604,62.35 42.5966384,52.4931985 42.5966384,38.96875 C42.5966384,25.5589154 52.1263446,15.702114 64.5264442,15.702114 L64.5264442,15.702114 Z" id="path3000_1_"></path>
                </g>
            </g>
            <g id="Ion" transform="translate(50.000000, 50.000000)" fill="#3880FF">
                <circle id="Oval" cx="140.449784" cy="32.5179304" r="17.6427069"></circle>
                <path d="M162.128405,50.1606373 L161.436534,48.546272 L160.283416,49.9300137 C157.40062,53.1587443 153.710643,55.6956042 149.674729,57.1946577 L148.521611,57.6559049 L148.982858,58.809023 C152.557524,67.2267852 154.287202,76.2211063 154.287202,85.3307393 C154.287202,123.498948 123.268325,154.633137 84.9848039,154.633137 C46.701283,154.633137 15.797718,123.498948 15.797718,85.3307393 C15.797718,47.1625302 46.8165948,16.0283416 85.1001157,16.0283416 C95.4781786,16.0283416 105.394994,18.3345778 114.735251,22.7164265 L115.773057,23.1776738 L116.234304,22.0245557 C117.963981,17.9886423 120.616153,14.529288 124.075507,11.7618046 L125.459249,10.6086865 L123.844884,9.80150384 C111.737144,3.57466611 98.7069092,0.34593543 84.9848039,0.34593543 C38.2835209,0.34593543 0.23062362,38.3988327 0.23062362,85.1001157 C0.23062362,131.801399 38.2835209,169.854296 84.9848039,169.854296 C131.686087,169.854296 169.738984,131.801399 169.738984,85.1001157 C169.738984,73.1076875 167.202124,61.3458828 162.128405,50.1606373 Z" id="Shape"></path>
            </g>
            <g id="Madrid" transform="translate(82.412451, 82.412451)">
                <path d="M75.4085603,77.3929961 C74.0194553,77.3929961 74.4163424,75.0116732 73.5564202,74.2178988 C72.6964981,73.4241245 73.1595331,72.6964981 73.7548638,71.9027237 C74.9455253,70.4474708 74.8793774,69.0583658 73.8210117,67.3385214 C71.7042802,63.9649805 68.8599222,60.7898833 69.6536965,56.2918288 C69.7859922,55.6303502 69.3229572,54.7042802 68.92607,54.0428016 C68.1322957,52.7859922 68.0661479,51.7276265 68.8599222,50.3385214 C70.1828794,48.0233463 68.92607,46.4357977 66.3463035,45.5758755 C64.4280156,44.9805447 62.1128405,45.3774319 60.6575875,43.459144 C62.2451362,42.7976654 63.8326848,42.2684825 65.2879377,41.4747082 C69.1245136,39.4241245 72.4319066,36.7120623 72.2996109,31.9494163 C72.1673152,27.1867704 69.0583658,24.2762646 65.0233463,22.5564202 C57.4824903,19.381323 49.6770428,18.9844358 42.0700389,22.4902724 C40.151751,23.3501946 38.4980545,24.6070039 37.1089494,26.1945525 C33.8677043,29.9649805 33.9338521,34.5953307 37.307393,38.1673152 C40.3501946,41.4085603 44.3190661,42.9961089 48.618677,43.7237354 C49.5447471,43.8560311 50.2723735,44.1867704 50.2723735,44.7159533 L50.2723735,74.4824903 C50.2723735,76.4669261 49.0817121,77.1945525 46.7003891,77.1945525 C45.0466926,77.1945525 43.0622568,77.3929961 40.9455253,77.3929961 L18.1245136,77.3929961 L41.540856,91.8132296 L72.7626459,91.4824903 L87.2490272,77.3929961 L75.4085603,77.3929961 Z M60.0622568,54.5058366 C59.0700389,53.7120623 57.5486381,51.7937743 57.5486381,49.8754864 L57.5486381,44.0544747 C57.5486381,43.9883268 58.1439689,43.9883268 59.0038911,43.922179 C57.2178988,47.7587549 60.5914397,50.9338521 60.0622568,54.5058366 Z M63.2373541,77.1945525 C63.1712062,77.1945525 63.1050584,77.3929961 63.0389105,77.3929961 L59.5992218,77.3929961 C58.4085603,76.7315175 57.4824903,75.8054475 57.4824903,74.3501946 L57.4824903,62.9727626 C58.8054475,63.4357977 60.0622568,64.229572 60.1284047,66.3463035 C60.1945525,67.9338521 61.2529183,69.5214008 62.1128405,71.0428016 C62.9727626,72.5642023 63.3035019,74.4824903 64.5603113,75.9377432 C65.0233463,76.3346304 64.0972763,77.0622568 63.2373541,77.1945525 Z" id="Shape" fill="#204FC6"></path>
                <path d="M52.9182879,0.13229572 C23.8132296,0.13229572 0.26459144,23.7470817 0.26459144,52.7859922 C0.26459144,81.8249027 23.8793774,105.439689 52.9182879,105.439689 C81.9571984,105.439689 105.571984,81.8249027 105.571984,52.7859922 C105.571984,23.7470817 82.0233463,0.13229572 52.9182879,0.13229572 Z M52.9182879,89.8287938 C32.4124514,89.8287938 15.8754864,73.2256809 15.8754864,52.7859922 C15.8754864,32.2801556 32.4785992,15.7431907 52.9182879,15.7431907 C73.3579767,15.7431907 89.9610895,32.3463035 89.9610895,52.7859922 C89.9610895,73.2256809 73.4241245,89.8287938 52.9182879,89.8287938 Z" id="Shape" fill="#518EFE"></path>
                <g id="Group" transform="translate(13.229572, 19.182879)" fill="#FDFEFE">
                    <polygon id="Shape" points="4.49805447 0.529182879 5.88715953 2.91050584 8.66536965 2.91050584 7.27626459 5.35797665 8.66536965 7.73929961 5.88715953 7.73929961 4.49805447 10.1867704 3.10894942 7.73929961 0.3307393 7.73929961 1.71984436 5.35797665 0.3307393 2.91050584 3.10894942 2.91050584"></polygon>
                    <polygon id="Shape" points="74.5486381 0.529182879 75.9377432 2.91050584 78.7159533 2.91050584 77.3268482 5.35797665 78.7159533 7.73929961 75.9377432 7.73929961 74.5486381 10.1867704 73.1595331 7.73929961 70.381323 7.73929961 71.770428 5.35797665 70.381323 2.91050584 73.1595331 2.91050584"></polygon>
                </g>
                <g id="Group" transform="translate(3.307393, 47.626459)" fill="#FDFEFE">
                    <polygon id="Shape" points="4.76264591 0.595330739 6.15175097 2.9766537 8.92996109 2.9766537 7.54085603 5.42412451 8.92996109 7.80544747 6.15175097 7.80544747 4.76264591 10.2529183 3.37354086 7.80544747 0.595330739 7.80544747 1.9844358 5.42412451 0.595330739 2.9766537 3.37354086 2.9766537"></polygon>
                    <polygon id="Shape" points="95.1206226 0.595330739 96.5097276 2.9766537 99.2879377 2.9766537 97.8988327 5.42412451 99.2879377 7.80544747 96.5097276 7.80544747 95.1206226 10.2529183 93.7315175 7.80544747 90.9533074 7.80544747 92.2762646 5.42412451 90.9533074 2.9766537 93.7315175 2.9766537"></polygon>
                </g>
                <polygon id="Shape" fill="#FDFEFE" points="52.9844358 3.24124514 54.3735409 5.68871595 57.151751 5.68871595 55.8287938 8.07003891 57.151751 10.5175097 54.3735409 10.5175097 52.9844358 12.8988327 51.5953307 10.5175097 48.8171206 10.5175097 50.2062257 8.07003891 48.8171206 5.68871595 51.5953307 5.68871595"></polygon>
                <g id="Group" transform="translate(16.536965, 80.038911)" fill="#FDFEFE">
                    <polygon id="Shape" points="4.76264591 0.0661478599 6.15175097 2.44747082 8.92996109 2.44747082 7.54085603 4.89494163 8.92996109 7.27626459 6.15175097 7.27626459 4.76264591 9.72373541 3.307393 7.27626459 0.529182879 7.27626459 1.91828794 4.89494163 0.529182879 2.44747082 3.307393 2.44747082"></polygon>
                    <polygon id="Shape" points="67.536965 0.0661478599 68.92607 2.44747082 71.7042802 2.44747082 70.3151751 4.89494163 71.7042802 7.27626459 68.92607 7.27626459 67.536965 9.72373541 66.1478599 7.27626459 63.3696498 7.27626459 64.7587549 4.89494163 63.3696498 2.44747082 66.1478599 2.44747082"></polygon>
                </g>
                <g id="Group-2" transform="translate(36.381323, 27.782101)" fill="#518EFE">
                    <circle id="Oval" cx="2.3151751" cy="4.23346304" r="2.18287938"></circle>
                    <circle id="Oval" cx="7.34241245" cy="6.94552529" r="2.18287938"></circle>
                    <circle id="Oval" cx="10.5175097" cy="11.4435798" r="2.18287938"></circle>
                    <circle id="Oval" cx="12.8326848" cy="2.77821012" r="2.18287938"></circle>
                    <circle id="Oval" cx="15.0817121" cy="7.80544747" r="2.18287938"></circle>
                    <circle id="Oval" cx="20.4396887" cy="7.80544747" r="2.18287938"></circle>
                    <circle id="Oval" cx="17.3307393" cy="12.766537" r="2.18287938"></circle>
                    <circle id="Oval" cx="24.540856" cy="3.70428016" r="2.18287938"></circle>
                    <circle id="Oval" cx="30.8910506" cy="5.55642023" r="2.18287938"></circle>
                    <circle id="Oval" cx="25.8638132" cy="9.59143969" r="2.18287938"></circle>
                </g>
            </g>
        </g>
    </g>
</svg>