<?xml version="1.0" encoding="UTF-8"?>
<svg width="516px" height="452px" viewBox="0 0 516 452" version="1.1" xmlns="http://www.w3.org/2000/svg" xmlns:xlink="http://www.w3.org/1999/xlink" style="background: #FFFFFF;">
    <!-- Generator: Sketch 47.1 (45422) - http://www.bohemiancoding.com/sketch -->
    <title>ionic-madrid-portrait</title>
    <desc>Created with Sketch.</desc>
    <defs></defs>
    <g id="Page-1" stroke="none" stroke-width="1" fill="none" fill-rule="evenodd">
        <g id="ionic-madrid-portrait" fill-rule="nonzero">
            <g id="Ion" transform="translate(129.000000, 50.000000)" fill="#3880FF">
                <circle id="Oval" cx="212.327027" cy="49.1594595" r="26.6716216"></circle>
                <path d="M245.1,75.8310811 L244.054054,73.3905405 L242.310811,75.4824324 C237.952703,80.3635135 232.374324,84.1986486 226.272973,86.4648649 L224.52973,87.1621622 L225.227027,88.9054054 C230.631081,101.631081 233.245946,115.228378 233.245946,129 C233.245946,186.701351 186.352703,233.768919 128.477027,233.768919 C70.6013514,233.768919 23.8824324,186.701351 23.8824324,129 C23.8824324,71.2986486 70.7756757,24.2310811 128.651351,24.2310811 C144.340541,24.2310811 159.332432,27.7175676 173.452703,34.3418919 L175.021622,35.0391892 L175.718919,33.2959459 C178.333784,27.1945946 182.343243,21.9648649 187.572973,17.7810811 L189.664865,16.0378378 L187.224324,14.8175676 C168.92027,5.40405405 149.221622,0.522972973 128.477027,0.522972973 C57.8756757,0.522972973 0.348648649,58.05 0.348648649,128.651351 C0.348648649,199.252703 57.8756757,256.77973 128.477027,256.77973 C199.078378,256.77973 256.605405,199.252703 256.605405,128.651351 C256.605405,110.521622 252.77027,92.7405405 245.1,75.8310811 Z" id="Shape"></path>
            </g>
            <g id="Letters" transform="translate(50.000000, 338.000000)">
                <g transform="translate(167.000000, 0.000000)" id="Shape" fill="#4E8EF7">
                    <path d="M11.5,23 C13.9,21.5 16.6,20.8 19.5,20.8 C20.6,20.8 21.7,20.9 22.9,21.1 C24.1,21.3 25.2,21.8 26.4,22.4 C27.5,23.1 28.6,23.9 29.5,25 C30.4,26.1 31.3,27.5 32,29.2 C33.4,26.4 35.3,24.3 37.7,22.9 C40.1,21.4 42.9,20.7 46.2,20.7 C51.3,20.7 55.2,22.2 57.7,25.3 C60.3,28.4 61.5,32.4 61.5,37.4 L61.5,62.2 L55.6,62.2 L55.6,39.8 C55.6,35.5 54.8,32.1 53.2,29.5 C51.6,26.9 48.9,25.6 45.1,25.6 C43,25.6 41.2,26 39.7,26.9 C38.2,27.8 37.1,28.9 36.2,30.3 C35.3,31.7 34.7,33.3 34.3,35.1 C33.9,36.9 33.7,38.7 33.7,40.6 L33.7,62.1 L27.8,62.1 L27.8,38.5 C27.8,36.5 27.7,34.8 27.4,33.1 C27.1,31.5 26.6,30.1 25.9,29 C25.2,27.9 24.2,27 22.9,26.4 C21.6,25.8 20,25.5 18.1,25.5 C16.7,25.5 15.3,25.8 13.9,26.4 C12.5,27 11.2,28 10.1,29.3 C9,30.6 8.1,32.2 7.4,34.2 C6.7,36.2 6.4,38.5 6.4,41.2 L6.4,61.9 L0.5,61.9 L0.5,30.4 C0.5,29.3 0.5,27.9 0.4,26.2 C0.3,24.5 0.3,22.9 0.1,21.5 L5.7,21.5 C5.8,22.6 5.9,23.8 6,25.1 C6.1,26.4 6.1,27.5 6.1,28.4 L6.3,28.4 C7.3,26.4 9.1,24.5 11.5,23 Z"></path>
                    <path d="M97.8,36.1 C97.8,32.6 96.9,30 95,28.3 C93.2,26.6 90.5,25.7 87,25.7 C84.6,25.7 82.3,26.1 80.3,27 C78.2,27.9 76.5,29 75,30.5 L71.7,26.6 C73.4,24.9 75.6,23.6 78.3,22.5 C81,21.4 84.1,20.9 87.6,20.9 C89.8,20.9 91.8,21.2 93.7,21.8 C95.6,22.4 97.3,23.3 98.7,24.5 C100.1,25.7 101.3,27.2 102.1,29.1 C102.9,30.9 103.3,33.1 103.3,35.6 L103.3,53.3 C103.3,54.9 103.4,56.5 103.5,58.1 C103.6,59.8 103.8,61.2 104,62.3 L98.7,62.3 C98.5,61.3 98.4,60.3 98.3,59.1 C98.2,57.9 98.1,56.8 98.1,55.7 L98,55.7 C96.2,58.4 94.1,60.3 91.7,61.5 C89.4,62.7 86.6,63.3 83.3,63.3 C81.7,63.3 80.1,63.1 78.5,62.7 C76.9,62.3 75.4,61.6 74,60.6 C72.6,59.6 71.5,58.3 70.6,56.8 C69.7,55.2 69.3,53.3 69.3,51.1 C69.3,48 70.1,45.5 71.7,43.7 C73.3,41.9 75.4,40.5 78,39.6 C80.6,38.7 83.7,38.1 87.1,37.9 C90.5,37.6 94.1,37.5 97.8,37.5 L97.8,36.1 Z M96.1,42.1 C93.7,42.1 91.3,42.2 88.8,42.4 C86.4,42.6 84.1,43 82.2,43.6 C80.2,44.2 78.6,45.1 77.3,46.2 C76,47.4 75.4,48.9 75.4,50.8 C75.4,52.2 75.7,53.4 76.2,54.4 C76.7,55.4 77.5,56.2 78.4,56.8 C79.3,57.4 80.3,57.8 81.5,58.1 C82.6,58.4 83.8,58.5 84.9,58.5 C87,58.5 88.8,58.1 90.4,57.4 C92,56.7 93.4,55.7 94.5,54.5 C95.6,53.3 96.4,51.8 97,50.2 C97.6,48.6 97.9,46.9 97.9,45.1 L97.9,42.1 L96.1,42.1 Z"></path>
                    <path d="M147.3,55.4 C145.6,58 143.3,59.9 140.6,61.3 C137.8,62.6 135,63.3 132.1,63.3 C128.9,63.3 126.1,62.8 123.5,61.7 C120.9,60.6 118.8,59.1 116.9,57.2 C115.1,55.3 113.7,53.1 112.7,50.5 C111.7,47.9 111.2,45.1 111.2,42.1 C111.2,39.1 111.7,36.3 112.7,33.7 C113.7,31.1 115.1,28.9 116.9,27 C118.7,25.1 120.9,23.6 123.5,22.5 C126.1,21.4 128.9,20.9 132.1,20.9 C135,20.9 137.9,21.6 140.6,22.9 C143.4,24.3 145.6,26.3 147.3,28.9 L147.5,28.9 L147.5,0 L153.4,0 L153.4,62.3 L147.5,62.3 L147.5,55.5 L147.3,55.5 L147.3,55.4 Z M117.4,42.1 C117.4,44.3 117.7,46.5 118.4,48.4 C119.1,50.4 120.1,52.1 121.4,53.6 C122.7,55.1 124.3,56.2 126.2,57.1 C128.1,57.9 130.3,58.4 132.7,58.4 C134.9,58.4 137,58 138.9,57.1 C140.8,56.3 142.4,55.1 143.8,53.7 C145.2,52.3 146.3,50.5 147,48.6 C147.8,46.6 148.2,44.5 148.2,42.2 C148.2,39.9 147.8,37.8 147,35.8 C146.2,33.8 145.1,32.1 143.8,30.6 C142.4,29.1 140.8,28 138.9,27.1 C137,26.3 134.9,25.8 132.7,25.8 C130.3,25.8 128.1,26.2 126.2,27.1 C124.3,28 122.7,29.1 121.4,30.6 C120.1,32.1 119.1,33.8 118.4,35.8 C117.7,37.7 117.4,39.8 117.4,42.1 Z"></path>
                    <path d="M164.7,26.5 C164.6,24.8 164.6,23.2 164.4,21.8 L170,21.8 C170.1,22.9 170.2,24.1 170.3,25.4 C170.4,26.7 170.4,27.8 170.4,28.7 L170.6,28.7 C171.8,26.3 173.5,24.4 175.8,23 C178.1,21.5 180.7,20.8 183.6,20.8 C184.3,20.8 185,20.8 185.6,20.9 C186.2,21 186.8,21.1 187.5,21.2 L186.7,26.8 C186.4,26.7 185.8,26.6 185,26.5 C184.2,26.4 183.4,26.3 182.6,26.3 C181,26.3 179.5,26.6 178.1,27.2 C176.7,27.8 175.4,28.7 174.3,29.9 C173.2,31.1 172.4,32.7 171.7,34.6 C171,36.5 170.7,38.8 170.7,41.5 L170.7,62.2 L164.8,62.2 L164.8,30.7 C164.8,29.7 164.7,28.2 164.7,26.5 Z"></path>
                    <path d="M198.7,9.3 C198.7,10.5 198.3,11.5 197.4,12.3 C196.5,13.1 195.6,13.5 194.6,13.5 C193.6,13.5 192.6,13.1 191.8,12.3 C190.9,11.5 190.5,10.5 190.5,9.3 C190.5,8.1 190.9,7.1 191.8,6.3 C192.7,5.5 193.6,5.1 194.6,5.1 C195.6,5.1 196.6,5.5 197.4,6.3 C198.3,7.1 198.7,8.1 198.7,9.3 Z M197.5,62.3 L191.6,62.3 L191.6,21.9 L197.5,21.9 L197.5,62.3 Z"></path>
                    <path d="M242,55.4 C240.3,58 238,59.9 235.3,61.3 C232.5,62.6 229.7,63.3 226.8,63.3 C223.6,63.3 220.8,62.8 218.2,61.7 C215.6,60.6 213.5,59.1 211.6,57.2 C209.8,55.3 208.4,53.1 207.4,50.5 C206.4,47.9 205.9,45.1 205.9,42.1 C205.9,39.1 206.4,36.3 207.4,33.7 C208.4,31.1 209.8,28.9 211.6,27 C213.4,25.1 215.6,23.6 218.2,22.5 C220.8,21.4 223.6,20.9 226.8,20.9 C229.7,20.9 232.6,21.6 235.3,22.9 C238.1,24.3 240.3,26.3 242,28.9 L242.2,28.9 L242.2,0 L248.1,0 L248.1,62.3 L242.2,62.3 L242.2,55.5 L242,55.5 L242,55.4 Z M212.1,42.1 C212.1,44.3 212.4,46.5 213.1,48.4 C213.8,50.4 214.8,52.1 216.1,53.6 C217.4,55.1 219,56.2 220.9,57.1 C222.8,57.9 225,58.4 227.4,58.4 C229.6,58.4 231.7,58 233.6,57.1 C235.5,56.3 237.1,55.1 238.5,53.7 C239.9,52.3 241,50.5 241.7,48.6 C242.5,46.6 242.9,44.5 242.9,42.2 C242.9,39.9 242.5,37.8 241.7,35.8 C240.9,33.8 239.8,32.1 238.5,30.6 C237.1,29.1 235.5,28 233.6,27.1 C231.7,26.3 229.6,25.8 227.4,25.8 C225,25.8 222.8,26.2 220.9,27.1 C219,28 217.4,29.1 216.1,30.6 C214.8,32.1 213.8,33.8 213.1,35.8 C212.4,37.7 212.1,39.8 212.1,42.1 Z"></path>
                </g>
                <g id="IONIC" transform="translate(0.000000, 20.000000)" fill="#3880FF">
                    <rect id="Rectangle-path" x="0.0633466135" y="1.26470588" width="9.8187251" height="40.4705882"></rect>
                    <rect id="Rectangle-path" x="106.042231" y="1.26470588" width="9.8187251" height="40.4705882"></rect>
                    <path d="M83.3641434,0.316176471 C76.4593625,0.316176471 71.138247,4.48970588 69.9346614,5.62794118 L69.9346614,5.62794118 L69.3011952,1.26470588 L61.1294821,1.26470588 L61.1294821,41.7352941 L70.9482072,41.7352941 L70.9482072,41.7352941 L70.9482072,17.2632353 C70.9482072,12.4573529 77.4729084,8.53676471 82.287251,8.53676471 C86.9749004,8.53676471 90.649004,13.0897059 90.649004,18.5279412 L90.649004,41.7352941 L100.467729,41.7352941 L100.467729,19.4764706 C100.404382,8.85294118 95.7800797,0.316176471 83.3641434,0.316176471 Z" id="Shape"></path>
                    <path d="M141.579681,34.4 C134.168127,34.4 129.290438,28.6455882 129.290438,21.5 C129.290438,14.3544118 134.168127,8.6 141.579681,8.6 C147.850996,8.6 151.715139,14.6705882 151.715139,14.6705882 L158.80996,9.92794118 C156.782869,6.76617647 154.375697,4.86911765 151.14502,2.90882353 C148.737849,1.45441176 145.507171,0.252941176 141.896414,0.252941176 C129.607171,0.252941176 120.231873,9.48529412 120.168526,21.4367647 C120.231873,33.3882353 129.607171,42.6205882 141.896414,42.6205882 C145.507171,42.6205882 148.737849,41.4191176 151.14502,39.9647059 C154.375697,38.0044118 156.782869,36.1073529 158.80996,32.9455882 L151.715139,28.2029412 C151.715139,28.2661765 147.914343,34.4 141.579681,34.4 Z" id="Shape"></path>
                    <path d="M35.4741036,0.316176471 C23.1215139,0.316176471 14.252988,9.99117647 14.252988,21.3102941 C14.252988,32.8191176 22.8681275,42.6838235 35.6641434,42.6838235 C47.2565737,42.6838235 56.6952191,33.8308824 56.6952191,21.5632353 C56.6952191,7.525 45.6729084,0.316176471 35.4741036,0.316176471 L35.4741036,0.316176471 Z M35.6007968,8.66323529 C41.6820717,8.66323529 47.4466135,13.5955882 47.4466135,21.5632353 C47.4466135,29.3411765 41.6820717,34.4 35.5374502,34.4 C28.8227092,34.4 23.5015936,28.9617647 23.5015936,21.5 C23.5015936,14.1014706 28.7593625,8.66323529 35.6007968,8.66323529 L35.6007968,8.66323529 Z" id="path3000_1_"></path>
                </g>
            </g>
            <g id="Madrid" transform="translate(178.000000, 99.000000)">
                <path d="M114,117 C111.9,117 112.5,113.4 111.2,112.2 C109.9,111 110.6,109.9 111.5,108.7 C113.3,106.5 113.2,104.4 111.6,101.8 C108.4,96.7 104.1,91.9 105.3,85.1 C105.5,84.1 104.8,82.7 104.2,81.7 C103,79.8 102.9,78.2 104.1,76.1 C106.1,72.6 104.2,70.2 100.3,68.9 C97.4,68 93.9,68.6 91.7,65.7 C94.1,64.7 96.5,63.9 98.7,62.7 C104.5,59.6 109.5,55.5 109.3,48.3 C109.1,41.1 104.4,36.7 98.3,34.1 C86.9,29.3 75.1,28.7 63.6,34 C60.7,35.3 58.2,37.2 56.1,39.6 C51.2,45.3 51.3,52.3 56.4,57.7 C61,62.6 67,65 73.5,66.1 C74.9,66.3 76,66.8 76,67.6 L76,112.6 C76,115.6 74.2,116.7 70.6,116.7 C68.1,116.7 65.1,117 61.9,117 L27.4,117 L62.8,138.8 L110,138.3 L131.9,117 L114,117 Z M90.8,82.4 C89.3,81.2 87,78.3 87,75.4 L87,66.6 C87,66.5 87.9,66.5 89.2,66.4 C86.5,72.2 91.6,77 90.8,82.4 Z M95.6,116.7 C95.5,116.7 95.4,117 95.3,117 L90.1,117 C88.3,116 86.9,114.6 86.9,112.4 L86.9,95.2 C88.9,95.9 90.8,97.1 90.9,100.3 C91,102.7 92.6,105.1 93.9,107.4 C95.2,109.7 95.7,112.6 97.6,114.8 C98.3,115.4 96.9,116.5 95.6,116.7 Z" id="Shape" fill="#204FC6"></path>
                <path d="M80,0.2 C36,0.2 0.4,35.9 0.4,79.8 C0.4,123.7 36.1,159.4 80,159.4 C123.9,159.4 159.6,123.7 159.6,79.8 C159.6,35.9 124,0.2 80,0.2 Z M80,135.8 C49,135.8 24,110.7 24,79.8 C24,48.8 49.1,23.8 80,23.8 C110.9,23.8 136,48.9 136,79.8 C136,110.7 111,135.8 80,135.8 Z" id="Shape" fill="#518EFE"></path>
                <g id="Group" transform="translate(20.000000, 29.000000)" fill="#FDFEFE">
                    <polygon id="Shape" points="6.8 0.8 8.9 4.4 13.1 4.4 11 8.1 13.1 11.7 8.9 11.7 6.8 15.4 4.7 11.7 0.5 11.7 2.6 8.1 0.5 4.4 4.7 4.4"></polygon>
                    <polygon id="Shape" points="112.7 0.8 114.8 4.4 119 4.4 116.9 8.1 119 11.7 114.8 11.7 112.7 15.4 110.6 11.7 106.4 11.7 108.5 8.1 106.4 4.4 110.6 4.4"></polygon>
                </g>
                <g id="Group" transform="translate(5.000000, 72.000000)" fill="#FDFEFE">
                    <polygon id="Shape" points="7.2 0.9 9.3 4.5 13.5 4.5 11.4 8.2 13.5 11.8 9.3 11.8 7.2 15.5 5.1 11.8 0.9 11.8 3 8.2 0.9 4.5 5.1 4.5"></polygon>
                    <polygon id="Shape" points="143.8 0.9 145.9 4.5 150.1 4.5 148 8.2 150.1 11.8 145.9 11.8 143.8 15.5 141.7 11.8 137.5 11.8 139.5 8.2 137.5 4.5 141.7 4.5"></polygon>
                </g>
                <polygon id="Shape" fill="#FDFEFE" points="80.1 4.9 82.2 8.6 86.4 8.6 84.4 12.2 86.4 15.9 82.2 15.9 80.1 19.5 78 15.9 73.8 15.9 75.9 12.2 73.8 8.6 78 8.6"></polygon>
                <g id="Group" transform="translate(25.000000, 121.000000)" fill="#FDFEFE">
                    <polygon id="Shape" points="7.2 0.1 9.3 3.7 13.5 3.7 11.4 7.4 13.5 11 9.3 11 7.2 14.7 5 11 0.8 11 2.9 7.4 0.8 3.7 5 3.7"></polygon>
                    <polygon id="Shape" points="102.1 0.1 104.2 3.7 108.4 3.7 106.3 7.4 108.4 11 104.2 11 102.1 14.7 100 11 95.8 11 97.9 7.4 95.8 3.7 100 3.7"></polygon>
                </g>
                <g id="Group-2" transform="translate(55.000000, 42.000000)" fill="#518EFE">
                    <circle id="Oval" cx="3.5" cy="6.4" r="3.3"></circle>
                    <circle id="Oval" cx="11.1" cy="10.5" r="3.3"></circle>
                    <circle id="Oval" cx="15.9" cy="17.3" r="3.3"></circle>
                    <circle id="Oval" cx="19.4" cy="4.2" r="3.3"></circle>
                    <circle id="Oval" cx="22.8" cy="11.8" r="3.3"></circle>
                    <circle id="Oval" cx="30.9" cy="11.8" r="3.3"></circle>
                    <circle id="Oval" cx="26.2" cy="19.3" r="3.3"></circle>
                    <circle id="Oval" cx="37.1" cy="5.6" r="3.3"></circle>
                    <circle id="Oval" cx="46.7" cy="8.4" r="3.3"></circle>
                    <circle id="Oval" cx="39.1" cy="14.5" r="3.3"></circle>
                </g>
            </g>
        </g>
    </g>
</svg>